HIERARCHY
ROOT Hips
{
	OFFSET 0.000000 0.000000 0.000000
	CHANNELS 6 Xposition Yposition Zposition Zrotation Yrotation Xrotation 
	JOINT LHipJoint
	{
		OFFSET 0.000000 0.000000 0.000000
		CHANNELS 3 Zrotation Yrotation Xrotation
		JOINT LeftUpLeg
		{
			OFFSET 1.363060 -1.794630 0.839290
			CHANNELS 3 Zrotation Yrotation Xrotation
			JOINT LeftLeg
			{
				OFFSET 2.448110 -6.726130 0.000000
				CHANNELS 3 Zrotation Yrotation Xrotation
				JOINT LeftFoot
				{
					OFFSET 2.562200 -7.039590 0.000000
					CHANNELS 3 Zrotation Yrotation Xrotation
					JOINT LeftToeBase
					{
						OFFSET 0.157640 -0.433110 2.322550
						CHANNELS 3 Zrotation Yrotation Xrotation
						End Site
						{
							OFFSET 0.000000 0.000000 0.000000
						}
					}
				}
			}
		}
	}
	JOINT RHipJoint
	{
		OFFSET 0.000000 0.000000 0.000000
		CHANNELS 3 Zrotation Yrotation Xrotation
		JOINT RightUpLeg
		{
			OFFSET -1.305520 -1.794630 0.839290
			CHANNELS 3 Zrotation Yrotation Xrotation
			JOINT RightLeg
			{
				OFFSET -2.542530 -6.985550 0.000000
				CHANNELS 3 Zrotation Yrotation Xrotation
				JOINT RightFoot
				{
					OFFSET -2.568260 -7.056230 0.000000
					CHANNELS 3 Zrotation Yrotation Xrotation
					JOINT RightToeBase
					{
						OFFSET -0.164730 -0.452590 2.363150
						CHANNELS 3 Zrotation Yrotation Xrotation
						End Site
						{
							OFFSET 0.000000 0.000000 0.000000
						}
					}
				}
			}
		}
	}
	JOINT LowerBack
	{
		OFFSET 0.000000 0.000000 0.000000
		CHANNELS 3 Zrotation Yrotation Xrotation
		JOINT Spine
		{
			OFFSET 0.028270 2.035590 -0.193380
			CHANNELS 3 Zrotation Yrotation Xrotation
			JOINT Spine1
			{
				OFFSET 0.056720 2.048850 -0.042750
				CHANNELS 3 Zrotation Yrotation Xrotation
				JOINT Neck
				{
					OFFSET 0.000000 0.000000 0.000000
					CHANNELS 3 Zrotation Yrotation Xrotation
					JOINT Neck1
					{
						OFFSET -0.054170 1.746240 0.172020
						CHANNELS 3 Zrotation Yrotation Xrotation
						JOINT Head
						{
							OFFSET 0.104070 1.761360 -0.123970
							CHANNELS 3 Zrotation Yrotation Xrotation
							End Site
							{
								OFFSET 0.000000 0.000000 0.000000
							}
						}
					}
				}
				JOINT LeftShoulder
				{
					OFFSET 0.000000 0.000000 0.000000
					CHANNELS 3 Zrotation Yrotation Xrotation
					JOINT LeftArm
					{
						OFFSET 3.362410 1.200890 -0.311210
						CHANNELS 3 Zrotation Yrotation Xrotation
						JOINT LeftForeArm
						{
							OFFSET 4.983000 -0.000000 -0.000000
							CHANNELS 3 Zrotation Yrotation Xrotation
							JOINT LeftHand
							{
								OFFSET 3.483560 -0.000000 -0.000000
								CHANNELS 3 Zrotation Yrotation Xrotation
								JOINT LeftFingerBase
								{
									OFFSET 0.000000 0.000000 0.000000
									CHANNELS 3 Zrotation Yrotation Xrotation
									JOINT LeftHandIndex1
									{
										OFFSET 0.715260 -0.000000 -0.000000
										CHANNELS 3 Zrotation Yrotation Xrotation
										End Site
										{
											OFFSET 0.000000 0.000000 0.000000
										}
									}
								}
								JOINT LThumb
								{
									OFFSET 0.000000 0.000000 0.000000
									CHANNELS 3 Zrotation Yrotation Xrotation
									End Site
									{
										OFFSET 0.000000 0.000000 0.000000
									}
								}
							}
						}
					}
				}
				JOINT RightShoulder
				{
					OFFSET 0.000000 0.000000 0.000000
					CHANNELS 3 Zrotation Yrotation Xrotation
					JOINT RightArm
					{
						OFFSET -3.136600 1.374050 -0.404650
						CHANNELS 3 Zrotation Yrotation Xrotation
						JOINT RightForeArm
						{
							OFFSET -5.241900 -0.000000 -0.000000
							CHANNELS 3 Zrotation Yrotation Xrotation
							JOINT RightHand
							{
								OFFSET -3.444170 -0.000000 -0.000000
								CHANNELS 3 Zrotation Yrotation Xrotation
								JOINT RightFingerBase
								{
									OFFSET 0.000000 0.000000 0.000000
									CHANNELS 3 Zrotation Yrotation Xrotation
									JOINT RightHandIndex1
									{
										OFFSET -0.622530 -0.000000 -0.000000
										CHANNELS 3 Zrotation Yrotation Xrotation
										End Site
										{
											OFFSET 0.000000 0.000000 0.000000
										}
									}
								}
								JOINT RThumb
								{
									OFFSET 0.000000 0.000000 0.000000
									CHANNELS 3 Zrotation Yrotation Xrotation
									End Site
									{
										OFFSET 0.000000 0.000000 0.000000
									}
								}
							}
						}
					}
				}
			}
		}
	}
}
MOTION
Frames: 8
Frame Time: 0.008333
-0.113626 17.665574 -5.844049 2.028168 1.612338 9.451879 -1.245117 5.327749 5.410634 -16.500482 -1.559635 -12.581586 4.552434 11.102703 39.473938 0.418821 -2.179987 10.281281 1.412723 -7.517207 -21.257112 -3.023576 -6.148929 4.256247 18.732719 17.329469 -7.770445 -7.226457 -12.386145 46.707858 1.460911 -7.470082 4.915165 -1.588788 7.951126 -22.565703 1.332565 0.333495 4.849289 -0.691976 -0.207508 11.450495 1.676661 0.857733 -14.188716 -6.885847 -2.581802 -19.319455 5.473898 -1.991358 -6.862461 3.249510 -0.669682 0.678907 -3.721645 -3.498143 -0.842786 -33.964992 -63.438123 8.053849 66.270454 -56.974865 -42.001583 0.179553 -0.940541 -3.264179 32.416839 21.000933 13.408019 -7.125000 0.000000 0.000000 3.756351 55.656491 0.983510 3.179715 4.488429 -1.289554 48.743569 64.148491 27.628511 -54.978619 48.862990 -34.114050 0.145207 1.757789 2.991528 -31.357741 5.157124 -1.895806 7.125000 0.000000 0.000000 -3.675977 -26.340034 -1.666136
-0.093444 18.069267 -5.400812 1.341952 1.922080 9.550956 -1.389122 5.457129 5.467409 -15.419318 -1.988384 -9.842488 3.515889 9.908413 34.564971 -0.000694 2.384682 17.358701 1.221479 -7.008080 -19.740101 -2.757223 -6.187307 3.999050 19.322824 16.568334 -5.414838 -6.416386 -11.566911 42.718484 1.881402 -10.502750 11.891734 -1.467567 7.654762 -21.670858 1.847517 0.237329 3.056879 0.279457 -0.339416 9.074105 1.185718 0.698009 -12.982185 -7.325578 -2.429498 -18.351485 5.462880 -1.851516 -4.852712 3.278513 -0.629145 1.130749 -4.020419 -3.590838 -0.661615 -34.385541 -61.668363 8.801751 65.432701 -56.823346 -41.263015 0.155040 -0.935902 -2.838551 32.765044 20.050353 13.048725 -7.125000 0.000000 0.000000 4.311692 54.655558 1.022892 3.359887 4.542047 -1.132654 47.765211 63.077970 27.111830 -52.856106 48.244759 -32.123380 0.174016 1.675129 3.469328 -31.245484 5.396731 -2.091854 7.125000 0.000000 0.000000 -3.582073 -25.953947 -1.656128
-0.079789 18.474787 -4.971498 0.781958 2.048914 9.651732 -1.598673 5.643451 5.531493 -14.471670 -2.980852 -7.216451 2.738492 8.788512 29.791927 -0.265260 8.127154 24.083567 0.794872 -5.664393 -15.820367 -2.513640 -6.271859 3.796198 19.692258 16.063563 -3.769815 -5.938248 -10.976199 39.582941 1.844502 -13.653095 19.254880 -0.883521 5.947308 -16.643821 2.313248 0.310481 1.021053 0.861257 -0.262361 7.208418 0.745563 0.627932 -11.548863 -7.522105 -2.387505 -17.629066 5.437597 -1.894875 -2.705937 3.261408 -0.677707 1.654348 -4.245107 -3.723509 -0.522692 -34.736141 -60.049654 9.754281 64.798326 -56.668916 -40.688265 0.109877 -0.926469 -1.771992 34.222273 19.162521 13.245412 -7.125000 0.000000 0.000000 6.049344 53.963210 1.339047 3.530398 4.606063 -0.994574 46.406112 61.686703 25.958589 -51.158119 47.765166 -30.565714 0.189625 1.605832 4.459988 -30.699632 5.386428 -2.093044 7.125000 0.000000 0.000000 -3.156628 -25.887413 -1.464182
-0.074699 18.869064 -4.574996 0.663069 1.722341 9.662721 -1.879983 5.845643 5.548061 -14.100828 -4.344987 -4.687854 2.189107 7.840594 25.546393 -0.333523 14.053171 29.712851 0.410823 -4.082324 -11.312675 -2.318051 -6.382894 3.606667 19.543949 16.135161 -2.726668 -5.779326 -10.701317 37.466889 1.244434 -16.786939 26.927453 -0.391129 3.980030 -11.025026 2.370878 0.516902 -0.429380 0.886723 -0.023031 5.331503 0.663417 0.678013 -10.349019 -7.532521 -2.315838 -16.907724 5.323934 -1.920281 -0.705453 3.215380 -0.712462 2.106308 -4.416139 -3.819488 -0.370857 -35.352801 -58.335317 10.829828 64.826437 -56.680743 -40.703766 0.106769 -0.923267 -0.937090 34.133723 19.546550 13.426761 -7.125000 0.000000 0.000000 5.902418 54.378149 1.366497 3.735376 4.629707 -0.811022 45.408487 60.192548 25.206224 -49.768394 47.357192 -29.325630 0.196219 1.550523 6.161901 -30.010424 4.983049 -1.844026 7.125000 0.000000 0.000000 -2.623900 -26.296712 -1.191913
-0.068138 19.242209 -4.216379 0.460421 1.366917 9.830559 -2.123195 6.010460 5.467389 -13.776247 -6.185845 -2.753307 1.772674 7.147677 22.241885 -0.142272 18.717282 34.029051 0.261678 -3.287524 -9.080572 -2.158246 -6.464724 3.410267 19.457996 16.438057 -2.504844 -5.864848 -10.698028 36.437091 0.181975 -19.372020 33.916473 -0.274075 3.367432 -9.303342 2.562907 0.710125 -1.320771 0.870365 0.244841 3.119642 0.538737 0.736934 -9.357228 -7.353209 -2.218682 -16.326950 5.054448 -1.912350 1.230250 3.111334 -0.725367 2.522969 -4.590936 -3.860982 -0.181281 -36.085410 -56.505325 11.782379 65.285914 -56.823795 -41.130808 0.139483 -0.925441 -0.569258 32.189120 19.838759 12.632438 -7.125000 0.000000 0.000000 3.696034 54.265088 0.842693 3.938841 4.623009 -0.557037 44.722887 58.642122 24.817637 -48.646383 47.043773 -28.360332 0.197031 1.512803 7.755684 -29.313097 4.420040 -1.505646 7.125000 0.000000 0.000000 -2.086174 -26.905197 -0.918103
-0.053221 19.596038 -3.878083 0.032234 1.166443 10.118461 -2.258378 6.104513 5.320155 -13.354375 -7.959395 -1.628227 1.502631 6.772376 20.272658 0.477305 21.049693 37.750122 0.239430 -3.148995 -8.693744 -2.043044 -6.483159 3.237169 19.640110 16.599280 -3.029602 -6.109144 -10.902440 36.570655 -0.959672 -20.766804 38.987293 -0.259850 3.279808 -9.058759 3.025715 0.822984 -2.014589 1.114116 0.448411 0.851360 0.226342 0.742811 -8.407589 -7.066517 -2.121659 -15.723192 4.594816 -1.874647 2.750768 2.947864 -0.724014 2.821504 -4.788450 -3.866766 0.003566 -36.859500 -54.373157 12.737875 65.576322 -56.910569 -41.394957 0.149821 -0.922163 0.295882 31.238592 20.068313 12.290521 -7.125000 0.000000 0.000000 2.603693 54.302009 0.595493 4.099488 4.617348 -0.281050 44.317467 57.038787 24.579347 -47.804948 46.829819 -27.686234 0.188801 1.479509 9.367905 -28.041524 4.361966 -1.425712 7.125000 0.000000 0.000000 -1.078246 -26.941926 -0.472681
-0.035963 19.922624 -3.569851 -0.380599 0.733596 10.318171 -2.261529 6.090738 5.201294 -13.206608 -8.483422 -1.478252 1.427103 6.694939 19.843453 0.832318 21.208115 39.077663 0.025888 -0.746777 -2.053300 -2.036818 -6.438939 3.158137 19.913239 16.687406 -4.064858 -6.473466 -11.274500 37.946794 -1.411465 -20.920018 40.426394 -0.185024 2.762202 -7.617854 3.502375 0.988498 -2.755892 1.395104 0.699803 -0.517276 -0.134873 0.789949 -7.586984 -6.965295 -1.984828 -15.381436 4.442473 -1.744506 3.768096 2.887346 -0.670031 3.037981 -4.929742 -3.862477 0.106139 -37.584802 -52.256895 13.234945 66.271979 -57.052590 -41.975487 0.140438 -0.916475 0.647247 32.076898 20.517243 12.941364 -7.125000 0.000000 0.000000 3.444411 54.989568 0.849388 4.212955 4.599164 -0.088112 43.852007 55.567681 24.379949 -47.375111 46.745880 -27.330624 0.225392 1.415181 10.289218 -28.544495 5.701996 -2.219010 7.125000 0.000000 0.000000 -1.423638 -25.336605 -0.681212
-0.024620 20.228185 -3.292259 -0.209654 0.073078 10.209410 -2.273429 5.993465 5.126577 -13.776734 -8.031744 -1.721248 1.457738 6.740158 20.227730 1.049372 19.880917 39.260209 0.014569 0.732454 2.013061 -2.144347 -6.379573 3.123164 19.733376 16.818101 -5.237701 -6.972525 -11.782524 40.045727 -1.207153 -21.370800 39.678798 -0.183042 2.738609 -7.552821 3.536684 1.207382 -2.983813 1.003676 0.953971 -1.203343 -0.086418 0.912017 -7.228910 -6.909257 -1.836547 -15.187743 4.536264 -1.599041 4.313892 2.904052 -0.600653 3.147076 -4.976505 -3.810169 0.158171 -38.521741 -50.147275 13.620304 67.376891 -57.283935 -42.922347 0.144691 -0.912122 0.892106 32.359171 20.986097 13.332956 -7.125000 0.000000 0.000000 3.664410 55.576085 0.952342 4.375297 4.512860 0.041497 43.440358 54.032815 24.173464 -47.208888 46.785012 -27.201673 0.250252 1.375978 11.118920 -29.141326 6.273902 -2.604846 7.125000 0.000000 0.000000 -1.852973 -24.624521 -0.912904
